<svg xmlns="http://www.w3.org/2000/svg">
  <symbol id="power" class="h-6 w-6" fill="none" viewBox="0 0 24 24" stroke="currentColor">
    <path stroke-linecap="round" stroke-linejoin="round" stroke-width="2" d="M13 10V3L4 14h7v7l9-11h-7z" />
  </symbol>

  <symbol id="play-circle" class="h-5 w-5" viewBox="0 0 20 20" fill="currentColor">
    <path fill-rule="evenodd" d="M10 18a8 8 0 100-16 8 8 0 000 16zM9.555 7.168A1 1 0 008 8v4a1 1 0 001.555.832l3-2a1 1 0 000-1.664l-3-2z" clip-rule="evenodd" />
  </symbol>

  <symbol id="stop-circle" class="h-5 w-5" viewBox="0 0 20 20" fill="currentColor">
    <path fill-rule="evenodd" d="M10 18a8 8 0 100-16 8 8 0 000 16zM8 7a1 1 0 00-1 1v4a1 1 0 001 1h4a1 1 0 001-1V8a1 1 0 00-1-1H8z" clip-rule="evenodd" />
  </symbol>

  <symbol id="fast-forward" class="h-5 w-5" viewBox="0 0 20 20" fill="currentColor">
    <path d="M4.555 5.168A1 1 0 003 6v8a1 1 0 001.555.832L10 11.202V14a1 1 0 001.555.832l6-4a1 1 0 000-1.664l-6-4A1 1 0 0010 6v2.798l-5.445-3.63z" />
  </symbol>

  <symbol id="rewind" class="h-5 w-5" viewBox="0 0 20 20" fill="currentColor">
    <path d="M8.445 14.832A1 1 0 0010 14v-2.798l5.445 3.63A1 1 0 0017 14V6a1 1 0 00-1.555-.832L10 8.798V6a1 1 0 00-1.555-.832l-6 4a1 1 0 000 1.664l6 4z" />
  </symbol>

  <symbol id="pause" class="h-5 w-5" viewBox="0 0 20 20" fill="currentColor">
    <path fill-rule="evenodd" d="M18 10a8 8 0 11-16 0 8 8 0 0116 0zM7 8a1 1 0 012 0v4a1 1 0 11-2 0V8zm5-1a1 1 0 00-1 1v4a1 1 0 102 0V8a1 1 0 00-1-1z" clip-rule="evenodd" />
  </symbol>


  <symbol id="power-fill" class="h-5 w-5" viewBox="0 0 20 20" fill="currentColor">
    <path fill-rule="evenodd" d="M11.3 1.046A1 1 0 0112 2v5h4a1 1 0 01.82 1.573l-7 10A1 1 0 018 18v-5H4a1 1 0 01-.82-1.573l7-10a1 1 0 011.12-.38z" clip-rule="evenodd" />
  </symbol>

  <symbol id="adjustments" class="h-6 w-6" fill="none" viewBox="0 0 24 24" stroke="currentColor">
    <path stroke-linecap="round" stroke-linejoin="round" stroke-width="2" d="M12 6V4m0 2a2 2 0 100 4m0-4a2 2 0 110 4m-6 8a2 2 0 100-4m0 4a2 2 0 110-4m0 4v2m0-6V4m6 6v10m6-2a2 2 0 100-4m0 4a2 2 0 110-4m0 4v2m0-6V4" />
  </symbol>

  <symbol id="view-grid" class="h-6 w-6" fill="none" viewBox="0 0 24 24" stroke="currentColor">
    <path stroke-linecap="round" stroke-linejoin="round" stroke-width="2" d="M4 6a2 2 0 012-2h2a2 2 0 012 2v2a2 2 0 01-2 2H6a2 2 0 01-2-2V6zM14 6a2 2 0 012-2h2a2 2 0 012 2v2a2 2 0 01-2 2h-2a2 2 0 01-2-2V6zM4 16a2 2 0 012-2h2a2 2 0 012 2v2a2 2 0 01-2 2H6a2 2 0 01-2-2v-2zM14 16a2 2 0 012-2h2a2 2 0 012 2v2a2 2 0 01-2 2h-2a2 2 0 01-2-2v-2z" />
  </symbol>

  <symbol id="exclamation" class="h-6 w-6" fill="none" viewBox="0 0 24 24" stroke="currentColor">
    <path stroke-linecap="round" stroke-linejoin="round" stroke-width="2" d="M12 9v2m0 4h.01m-6.938 4h13.856c1.54 0 2.502-1.667 1.732-3L13.732 4c-.77-1.333-2.694-1.333-3.464 0L3.34 16c-.77 1.333.192 3 1.732 3z" />
  </symbol>

  <symbol id="res" class="h-6 w-6" fill="none" viewBox="0 0 24 24" stroke="currentColor">
    <path stroke-linecap="round" stroke-linejoin="round" stroke-width="2" d="M6 5c7.18 0 13 5.82 13 13M6 11a7 7 0 017 7m-6 0a1 1 0 11-2 0 1 1 0 012 0z" />
  </symbol>

	<symbol id="ban" class="h-6 w-6" fill="none" viewBox="0 0 24 24" stroke="currentColor">
		<path stroke-linecap="round" stroke-linejoin="round" stroke-width="2" d="M18.364 18.364A9 9 0 005.636 5.636m12.728 12.728A9 9 0 015.636 5.636m12.728 12.728L5.636 5.636" />
	</symbol>

	<symbol id="check-circle" class="h-6 w-6" fill="none" viewBox="0 0 24 24" stroke="currentColor">
		<path stroke-linecap="round" stroke-linejoin="round" stroke-width="2" d="M9 12l2 2 4-4m6 2a9 9 0 11-18 0 9 9 0 0118 0z" />
	</symbol>

	<symbol id="info-circle" class="h-5 w-5" viewBox="0 0 20 20" fill="currentColor">
  <path fill-rule="evenodd" d="M18 10a8 8 0 11-16 0 8 8 0 0116 0zm-7-4a1 1 0 11-2 0 1 1 0 012 0zM9 9a1 1 0 000 2v3a1 1 0 001 1h1a1 1 0 100-2v-3a1 1 0 00-1-1H9z" clip-rule="evenodd" />
</symbol>

  <symbol id="plus-circle" class="h-5 w-5" viewBox="0 0 20 20" fill="currentColor">
    <path fill-rule="evenodd" d="M10 18a8 8 0 100-16 8 8 0 000 16zm1-11a1 1 0 10-2 0v2H7a1 1 0 100 2h2v2a1 1 0 102 0v-2h2a1 1 0 100-2h-2V7z" clip-rule="evenodd" />
  </symbol>

  <symbol id="refresh" class="h-5 w-5" viewBox="0 0 20 20" fill="currentColor">
    <path fill-rule="evenodd" d="M4 2a1 1 0 011 1v2.101a7.002 7.002 0 0111.601 2.566 1 1 0 11-1.885.666A5.002 5.002 0 005.999 7H9a1 1 0 010 2H4a1 1 0 01-1-1V3a1 1 0 011-1zm.008 9.057a1 1 0 011.276.61A5.002 5.002 0 0014.001 13H11a1 1 0 110-2h5a1 1 0 011 1v5a1 1 0 11-2 0v-2.101a7.002 7.002 0 01-11.601-2.566 1 1 0 01.61-1.276z" clip-rule="evenodd" />
  </symbol>

  <symbol id="trash" class="h-5 w-5" viewBox="0 0 20 20" fill="currentColor">
    <path fill-rule="evenodd" d="M9 2a1 1 0 00-.894.553L7.382 4H4a1 1 0 000 2v10a2 2 0 002 2h8a2 2 0 002-2V6a1 1 0 100-2h-3.382l-.724-1.447A1 1 0 0011 2H9zM7 8a1 1 0 012 0v6a1 1 0 11-2 0V8zm5-1a1 1 0 00-1 1v6a1 1 0 102 0V8a1 1 0 00-1-1z" clip-rule="evenodd" />
  </symbol>

  <symbol id="connect" viewBox="0 0 36 36">
    <path d="M17,12H14.15a6.25,6.25,0,0,0-6.21,5H2v2H7.93a6.22,6.22,0,0,0,6.22,5H17Z" class="clr-i-solid clr-i-solid-path-1"></path><path d="M28.23,17A6.25,6.25,0,0,0,22,12H19V24h3a6.22,6.22,0,0,0,6.22-5H34V17Z" class="clr-i-solid clr-i-solid-path-2"></path>
  </symbol>

  <symbol id="pencil" class="h-5 w-5" viewBox="0 0 20 20" fill="currentColor">
    <path d="M13.586 3.586a2 2 0 112.828 2.828l-.793.793-2.828-2.828.793-.793zM11.379 5.793L3 14.172V17h2.828l8.38-8.379-2.83-2.828z" />
  </symbol>

  <symbol id="code" class="h-5 w-5" viewBox="0 0 20 20" fill="currentColor">
    <path fill-rule="evenodd" d="M12.316 3.051a1 1 0 01.633 1.265l-4 12a1 1 0 11-1.898-.632l4-12a1 1 0 011.265-.633zM5.707 6.293a1 1 0 010 1.414L3.414 10l2.293 2.293a1 1 0 11-1.414 1.414l-3-3a1 1 0 010-1.414l3-3a1 1 0 011.414 0zm8.586 0a1 1 0 011.414 0l3 3a1 1 0 010 1.414l-3 3a1 1 0 11-1.414-1.414L16.586 10l-2.293-2.293a1 1 0 010-1.414z" clip-rule="evenodd" />
  </symbol>

  <symbol id="copy" class="h-5 w-5" viewBox="0 0 20 20" fill="currentColor">
    <path d="M7 9a2 2 0 012-2h6a2 2 0 012 2v6a2 2 0 01-2 2H9a2 2 0 01-2-2V9z" />
    <path d="M5 3a2 2 0 00-2 2v6a2 2 0 002 2V5h8a2 2 0 00-2-2H5z" />
  </symbol>

  <symbol id="ethernet" x="0px" y="0px" viewBox="0 0 508 508" style="enable-background:new 0 0 508 508;" fill="currentColor">
    <path style="fill:#676767;" d="M454,6H52C26.8,6,6,26.8,6,52v404c0,25.2,20.8,46,46,46h404c25.2,0,46-20.8,46-46V54C502,27.6,480.4,6,454,6z M450,288c0,1.2-0.8,2-2,2h-2h-88v62c0,1.2-0.8,2-2,2h-2H156h-2v-2v-62H64h-2v-2V66v-2c0-1.2,0.8-2,2-2h384c1.2,0,2,0.8,2,2V288z"/>
    <path style="fill:#F4EFEF;" d="M156,286c1.2,0,2,0.8,2,2v62h196v-60v-2c0-1.2,0.8-2,2-2h90V66H66v220H156z"/>
    <g>
      <path style="fill:#CC9999;" d="M62,288v2h2C62.8,290,62,289.2,62,288z"/>
      <path style="fill:#CC9999;" d="M154,352v2h2C154.8,354,154,353.2,154,352z"/>
    </g>
    <path d="M456,508H52c-28.8,0-52-23.2-52-52V52C0,23.2,23.2,0,52,0h404c28.8,0,52,23.2,52,52v404C508,484.8,484.8,508,456,508z M52,8C27.6,8,8,27.6,8,52v404c0,24.4,19.6,44,44,44h404c24.4,0,44-19.6,44-44V52c0-24.4-19.6-44-44-44H52z"/>
    <path d="M356,356H156c-2.4,0-4-1.6-4-4v-60H64c-2.4,0-4-1.6-4-4V64c0-2.4,1.6-4,4-4h384c2.4,0,4,1.6,4,4v224c0,2.4-1.6,4-4,4h-88v60C360,354.4,358.4,356,356,356z M160,348h192v-60c0-2.4,1.6-4,4-4h88V68H68v216h88c2.4,0,4,1.6,4,4V348z"/>
    <path d="M256,162c-2.4,0-4-1.6-4-4V66c0-2.4,1.6-4,4-4s4,1.6,4,4v92C260,160.4,258.4,162,256,162z"/>
    <path d="M212,162c-2.4,0-4-1.6-4-4V66c0-2.4,1.6-4,4-4s4,1.6,4,4v92C216,160.4,214.4,162,212,162z"/>
    <path d="M168,162c-2.4,0-4-1.6-4-4V66c0-2.4,1.6-4,4-4s4,1.6,4,4v92C172,160.4,170.4,162,168,162z"/>
    <path d="M124,162c-2.4,0-4-1.6-4-4V66c0-2.4,1.6-4,4-4s4,1.6,4,4v92C128,160.4,126.4,162,124,162z"/>
    <path d="M388,162c-2.4,0-4-1.6-4-4V66c0-2.4,1.6-4,4-4s4,1.6,4,4v92C392,160.4,390.4,162,388,162z"/>
    <path d="M344,162c-2.4,0-4-1.6-4-4V66c0-2.4,1.6-4,4-4s4,1.6,4,4v92C348,160.4,346.4,162,344,162z"/>
    <path d="M300,162c-2.4,0-4-1.6-4-4V66c0-2.4,1.6-4,4-4s4,1.6,4,4v92C304,160.4,302.4,162,300,162z"/>
    <path d="M256,214c-2.4,0-4-1.6-4-4v-24c0-2.4,1.6-4,4-4s4,1.6,4,4v24C260,212.4,258.4,214,256,214z"/>
    <path d="M212,214c-2.4,0-4-1.6-4-4v-24c0-2.4,1.6-4,4-4s4,1.6,4,4v24C216,212.4,214.4,214,212,214z"/>
    <path d="M168,214c-2.4,0-4-1.6-4-4v-24c0-2.4,1.6-4,4-4s4,1.6,4,4v24C172,212.4,170.4,214,168,214z"/>
    <path d="M124,214c-2.4,0-4-1.6-4-4v-24c0-2.4,1.6-4,4-4s4,1.6,4,4v24C128,212.4,126.4,214,124,214z"/>
    <path d="M388,214c-2.4,0-4-1.6-4-4v-24c0-2.4,1.6-4,4-4s4,1.6,4,4v24C392,212.4,390.4,214,388,214z"/>
    <path d="M344,214c-2.4,0-4-1.6-4-4v-24c0-2.4,1.6-4,4-4s4,1.6,4,4v24C348,212.4,346.4,214,344,214z"/>
    <path d="M300,214c-2.4,0-4-1.6-4-4v-24c0-2.4,1.6-4,4-4s4,1.6,4,4v24C304,212.4,302.4,214,300,214z"/>
</symbol>

  <symbol width="24px" height="24px" viewBox="0 0 24 24" fill="none" id="serial">
    <path d="M2.23177 10.3862C1.82042 8.65816 3.13073 6.99933 4.90701 6.99933H19.0915C20.8685 6.99933 22.1789 8.65932 21.7664 10.3877L20.6921 14.889C20.3966 16.1271 19.2901 17.0007 18.0172 17.0007H5.97854C4.70507 17.0007 3.5982 16.1263 3.30329 14.8875L2.23177 10.3862ZM7.00003 11.5C7.41424 11.5 7.75003 11.1642 7.75003 10.75C7.75003 10.3358 7.41424 10 7.00003 10C6.58582 10 6.25003 10.3358 6.25003 10.75C6.25003 11.1642 6.58582 11.5 7.00003 11.5ZM10.25 10.75C10.25 10.3358 9.91424 10 9.50003 10C9.08582 10 8.75003 10.3358 8.75003 10.75C8.75003 11.1642 9.08582 11.5 9.50003 11.5C9.91424 11.5 10.25 11.1642 10.25 10.75ZM8.25003 14C8.66424 14 9.00003 13.6642 9.00003 13.25C9.00003 12.8358 8.66424 12.5 8.25003 12.5C7.83582 12.5 7.50003 12.8358 7.50003 13.25C7.50003 13.6642 7.83582 14 8.25003 14ZM11.5 13.25C11.5 12.8358 11.1642 12.5 10.75 12.5C10.3358 12.5 10 12.8358 10 13.25C10 13.6642 10.3358 14 10.75 14C11.1642 14 11.5 13.6642 11.5 13.25ZM13.25 14C13.6642 14 14 13.6642 14 13.25C14 12.8358 13.6642 12.5 13.25 12.5C12.8358 12.5 12.5 12.8358 12.5 13.25C12.5 13.6642 12.8358 14 13.25 14ZM16.5 13.25C16.5 12.8358 16.1642 12.5 15.75 12.5C15.3358 12.5 15 12.8358 15 13.25C15 13.6642 15.3358 14 15.75 14C16.1642 14 16.5 13.6642 16.5 13.25ZM12 11.5C12.4142 11.5 12.75 11.1642 12.75 10.75C12.75 10.3358 12.4142 10 12 10C11.5858 10 11.25 10.3358 11.25 10.75C11.25 11.1642 11.5858 11.5 12 11.5ZM15.25 10.75C15.25 10.3358 14.9142 10 14.5 10C14.0858 10 13.75 10.3358 13.75 10.75C13.75 11.1642 14.0858 11.5 14.5 11.5C14.9142 11.5 15.25 11.1642 15.25 10.75ZM17 11.5C17.4142 11.5 17.75 11.1642 17.75 10.75C17.75 10.3358 17.4142 10 17 10C16.5858 10 16.25 10.3358 16.25 10.75C16.25 11.1642 16.5858 11.5 17 11.5Z" fill="#212121"/>
  </symbol>
  <symbol id="ethernet-color" x="0px" y="0px" viewBox="0 0 503.607 503.607" style="enable-background:new 0 0 503.607 503.607;" xml:space="preserve">
    <g transform="translate(1 1)">
      <polygon style="fill:#FFE100;" points="292.77,326.344 208.836,326.344 175.262,200.443 175.262,108.115 326.344,108.115 326.344,200.443 	"/>
      <polygon style="fill:#FFA800;" points="309.557,108.115 309.557,200.443 275.984,326.344 292.77,326.344 326.344,200.443 326.344,108.115 	"/>
      <polygon style="fill:#FFFFFF;" points="192.049,108.115 192.049,200.443 225.623,326.344 208.836,326.344 175.262,200.443 175.262,108.115 	"/>
      <path style="fill:#63D3FD;" d="M208.836,108.115c0,23.502,18.466,41.967,41.967,41.967s41.967-18.466,41.967-41.967H208.836z"/>
      <g>
        <polygon style="fill:#FFE100;" points="217.229,74.541 217.229,15.787 183.656,15.787 183.656,108.115 234.016,108.115 234.016,74.541 		"/>
        <polygon style="fill:#FFE100;" points="284.377,15.787 284.377,74.541 267.59,74.541 267.59,108.115 317.951,108.115 317.951,15.787 		"/>
      </g>
      <polygon style="fill:#63D3FD;" points="217.229,7.393 217.229,74.541 234.016,74.541 234.016,108.115 267.59,108.115 267.59,74.541 284.377,74.541 284.377,7.393 	"/>
      <polygon style="fill:#FFE100;" points="234.016,494.213 267.59,494.213 267.59,326.344 234.016,326.344"/>
      <path d="M292.77,334.738h-83.934c-3.357,0-6.715-2.518-8.393-5.875l-33.574-109.115c0-0.839,0-1.679,0-2.518V108.115c0-5.036,3.357-8.393,8.393-8.393h151.082c5.036,0,8.393,3.357,8.393,8.393v109.115c0,0.839,0,1.679,0,2.518l-33.574,109.115	C299.485,332.22,296.128,334.738,292.77,334.738z M214.711,317.951h71.344l31.895-101.561v-99.882H183.656v99.043L214.711,317.951z"/>
      <path d="M267.59,502.607h-33.574c-5.036,0-8.393-3.357-8.393-8.393V326.344c0-5.036,3.357-8.393,8.393-8.393h33.574c5.036,0,8.393,3.357,8.393,8.393v167.869C275.984,499.249,272.626,502.607,267.59,502.607z M242.41,485.82h16.787V334.738H242.41	V485.82z"/>
      <path d="M250.803,158.475c-27.698,0-50.361-22.662-50.361-50.361c0-5.036,3.357-8.393,8.393-8.393h83.934c5.036,0,8.393,3.357,8.393,8.393C301.164,135.813,278.502,158.475,250.803,158.475z M218.069,116.508c3.357,14.269,16.787,25.18,32.734,25.18s28.538-10.911,32.734-25.18H218.069z"/>
      <path d="M267.59,116.508h-33.574c-5.036,0-8.393-3.357-8.393-8.393v-25.18h-8.393c-5.036,0-8.393-3.357-8.393-8.393V7.393c0-5.036,3.357-8.393,8.393-8.393h67.148c5.036,0,8.393,3.357,8.393,8.393v67.148c0,5.036-3.357,8.393-8.393,8.393h-8.393v25.18 C275.984,113.151,272.626,116.508,267.59,116.508z M242.41,99.721h16.787v-25.18c0-5.036,3.357-8.393,8.393-8.393h8.393V15.787h-50.361v50.361h8.393c5.036,0,8.393,3.357,8.393,8.393V99.721z"/>
      <path d="M234.016,116.508h-50.361c-5.036,0-8.393-3.357-8.393-8.393V15.787c0-5.036,3.357-8.393,8.393-8.393h33.574c5.036,0,8.393,3.357,8.393,8.393v50.361h8.393c5.036,0,8.393,3.357,8.393,8.393v33.574 C242.41,113.151,239.052,116.508,234.016,116.508z M192.049,99.721h33.574V82.934h-8.393c-5.036,0-8.393-3.357-8.393-8.393V24.18h-16.787V99.721z"/>
      <path d="M317.951,116.508H267.59c-5.036,0-8.393-3.357-8.393-8.393V74.541c0-5.036,3.357-8.393,8.393-8.393h8.393V15.787c0-5.036,3.357-8.393,8.393-8.393h33.574c5.036,0,8.393,3.357,8.393,8.393v92.328C326.344,113.151,322.987,116.508,317.951,116.508z M275.984,99.721h33.574V24.18H292.77v50.361c0,5.036-3.357,8.393-8.393,8.393h-8.393V99.721z"/>
      <path d="M225.623,301.164h-26.859c-5.036,0-8.393-3.357-8.393-8.393s3.357-8.393,8.393-8.393h26.859c5.036,0,8.393,3.357,8.393,8.393S230.659,301.164,225.623,301.164z"/>
      <path d="M302.843,301.164h-26.859c-5.036,0-8.393-3.357-8.393-8.393s3.357-8.393,8.393-8.393h26.859c5.036,0,8.393,3.357,8.393,8.393S307.879,301.164,302.843,301.164z"/>
      <path d="M225.623,267.59h-37.77c-5.036,0-8.393-3.357-8.393-8.393s3.357-8.393,8.393-8.393h37.77c5.036,0,8.393,3.357,8.393,8.393 S230.659,267.59,225.623,267.59z"/>
      <path d="M313.754,267.59h-37.771c-5.036,0-8.393-3.357-8.393-8.393s3.357-8.393,8.393-8.393h37.771c5.036,0,8.393,3.357,8.393,8.393S317.951,267.59,313.754,267.59z"/>
      <path d="M225.623,234.016H177.78c-5.036,0-8.393-3.357-8.393-8.393s3.357-8.393,8.393-8.393h47.843c5.036,0,8.393,3.357,8.393,8.393S230.659,234.016,225.623,234.016z"/>
      <path d="M323.826,234.016h-47.843c-5.036,0-8.393-3.357-8.393-8.393s3.357-8.393,8.393-8.393h47.843c5.036,0,8.393,3.357,8.393,8.393S328.023,234.016,323.826,234.016z"/>
      <path d="M225.623,200.443h-50.361c-5.036,0-8.393-3.357-8.393-8.393c0-5.036,3.357-8.393,8.393-8.393h50.361c5.036,0,8.393,3.357,8.393,8.393C234.016,197.085,230.659,200.443,225.623,200.443z"/>
      <path d="M326.344,200.443h-50.361c-5.036,0-8.393-3.357-8.393-8.393c0-5.036,3.357-8.393,8.393-8.393h50.361c5.036,0,8.393,3.357,8.393,8.393C334.738,197.085,331.38,200.443,326.344,200.443z"/>
      <path d="M385.098,502.607h-268.59c-5.036,0-8.393-3.357-8.393-8.393c0-5.036,3.357-8.393,8.393-8.393h268.59c5.036,0,8.393,3.357,8.393,8.393C393.492,499.249,390.134,502.607,385.098,502.607z"/>
    </g>
  </symbol>
</svg>
